<svg width="89" height="92" viewBox="0 0 89 92" fill="none" xmlns="http://www.w3.org/2000/svg">
<path d="M15.243 55.855C17.669 56.053 20.097 54.217 20.648 51.762C20.966 50.345 20.584 49.045 19.738 48.167L21.693 39.592L35.617 40.316L33.769 49.032C32.442 49.77 31.409 51.041 31.084 52.541C30.546 55.037 32.165 57.234 34.72 57.443C37.292 57.652 39.824 55.764 40.351 53.231C40.671 51.697 40.176 50.292 39.163 49.386L41.027 40.596L59.217 41.54C59.263 41.543 59.31 41.544 59.357 41.544C60.629 41.544 61.734 40.644 61.981 39.382L64.299 27.51C65.767 26.749 66.897 25.404 67.196 23.842C67.671 21.365 65.867 19.315 63.189 19.251C60.53 19.189 57.997 21.11 57.509 23.552C57.204 25.079 57.771 26.46 58.888 27.306L57.173 36.077L42.15 35.297L43.979 26.679C45.287 25.924 46.301 24.67 46.603 23.225C47.102 20.823 45.446 18.833 42.92 18.774C40.414 18.714 37.982 20.583 37.471 22.952C37.166 24.365 37.615 25.644 38.552 26.472L36.74 35.018L22.9 34.299L24.817 25.89C25.98 25.146 26.881 23.978 27.181 22.644C27.704 20.311 26.181 18.38 23.796 18.325C21.429 18.268 19.091 20.084 18.559 22.386C18.257 23.69 18.596 24.878 19.376 25.683L14.332 47.813C13.151 48.544 12.23 49.729 11.909 51.112C11.351 53.532 12.834 55.659 15.243 55.855Z" fill="white"/>
<path d="M86.522 34.602C84.133 25.444 79.296 17.342 72.517 11.094C66.101 4.089 56.577 0.0910034 46.14 0.0910034C25.793 0.0910034 6.199 15.279 1.531 34.669C0.660997 38.282 0.340997 41.871 0.539997 45.353C0.637997 49.13 1.17 52.914 2.135 56.614C7.654 77.767 26.025 91.98 45.728 91.978C49.158 91.978 52.628 91.547 56.079 90.647C67.384 87.7 76.773 80.222 82.518 69.593C88.229 59.025 89.651 46.599 86.522 34.602ZM6.732 35.921C10.847 18.83 28.156 5.441 46.14 5.441C54.869 5.441 62.812 8.657 68.212 14.312L68.166 14.364C68.351 14.526 68.529 14.696 68.71 14.861C68.927 15.102 69.147 15.339 69.355 15.586C74.515 21.763 76.499 29.918 74.939 38.549C73.351 47.338 68.339 55.518 60.83 61.581C53.384 67.595 44.299 70.904 35.249 70.904C33.975 70.904 32.691 70.838 31.436 70.704C22.7 69.78 15.35 65.675 10.742 59.145C7.824 55.01 6.186 50.192 5.887 45.075C5.881 44.817 5.871 44.558 5.87 44.301H5.856C5.767 41.566 6.051 38.756 6.732 35.921ZM77.811 67.048C72.78 76.358 64.581 82.901 54.727 85.471C39.446 89.455 23.682 82.861 14.317 70.069C19.022 73.31 24.653 75.368 30.872 76.026C32.314 76.179 33.787 76.255 35.249 76.255C56.732 76.255 76.479 60.11 80.204 39.501C80.538 37.649 80.728 35.815 80.788 34.009C80.986 34.652 81.176 35.297 81.347 35.951C84.132 46.633 82.876 57.677 77.811 67.048Z" fill="white"/>
</svg>
